<svg xmlns="http://www.w3.org/2000/svg" viewBox="0 0 256 256"><defs><style>.cls-1{fill:#bacf88;}.cls-2{fill:#76a9da;}.cls-3{fill:#f7f7f8;}.cls-4{fill:#040006;}.cls-5{fill:#fff;}.cls-6{fill:#a8c36e;fill-rule:evenodd;}</style></defs><title>icon</title><g id="Capa_2" data-name="Capa 2"><g id="Capa_1-2" data-name="Capa 1"><rect class="cls-1" width="256" height="256"/><circle class="cls-2" cx="128" cy="128" r="121.78"/><rect class="cls-3" x="51.92" y="73.65" width="152.17" height="108.69" rx="17"/><path class="cls-4" d="M194.57,73.65H61.43a9.51,9.51,0,0,0-9.51,9.51h0v89.68h0a9.53,9.53,0,0,0,9.51,9.51H194.57a9.54,9.54,0,0,0,9.51-9.62h0V83.27h0A9.54,9.54,0,0,0,194.57,73.65ZM67.23,84.52h121.5a4.53,4.53,0,0,1,4.45,4.08v6.79H62.79V88.5A4.47,4.47,0,0,1,67.23,84.52Zm121.54,87H67.23a4.44,4.44,0,0,1-4.44-4V128H193.21v39.4A4.54,4.54,0,0,1,188.77,171.48Z"/><rect class="cls-4" x="73.65" y="144.3" width="65.21" height="5.43"/><rect class="cls-4" x="73.65" y="155.17" width="32.61" height="5.43"/><rect class="cls-4" x="160.61" y="144.3" width="21.74" height="16.3"/><circle class="cls-5" cx="204.08" cy="69.45" r="23.22"/><g id="Page-1"><g id="Core"><g id="check-circle"><path id="Shape" class="cls-6" d="M204.08,49a20.51,20.51,0,1,0,20.51,20.5A20.57,20.57,0,0,0,204.08,49ZM200,79.71,189.73,69.45l2.87-2.87L200,74l15.59-15.59,2.87,2.87L200,79.71Z"/></g></g></g></g></g></svg>